<?xml version="1.0" encoding="UTF-8"?>
<svg xmlns="http://www.w3.org/2000/svg" xmlns:xlink="http://www.w3.org/1999/xlink" version="1.1" viewBox="0 0 566.93 566.93">
  <defs>
    <style>
      .st0 {
        fill: url(#linear-gradient2);
      }

      .st1 {
        fill: url(#linear-gradient1);
      }

      .st2 {
        fill: url(#linear-gradient3);
      }

      .st3 {
        fill: url(#linear-gradient5);
      }

      .st4 {
        fill: url(#linear-gradient4);
      }

      .st5 {
        fill: url(#linear-gradient);
      }

      .st6 {
        isolation: isolate;
      }

      .st7 {
        fill: #8628a2;
      }

      .st7, .st8, .st9 {
        mix-blend-mode: overlay;
      }

      .st10 {
        fill: #fff;
      }

      .st11 {
        opacity: .5;
      }

      .st11, .st9 {
        fill: #2e97d6;
      }

      .st8 {
        fill: #ff9d44;
      }

      .st12 {
        fill: #270538;
      }
    </style>
    <linearGradient id="linear-gradient" x1="256.18" y1="234.95" x2="122.05" y2="174.56" gradientUnits="userSpaceOnUse">
      <stop offset="0" stop-color="#254fbc"/>
      <stop offset=".17" stop-color="#245bbe"/>
      <stop offset=".48" stop-color="#227ac4"/>
      <stop offset=".77" stop-color="#209fcc"/>
    </linearGradient>
    <linearGradient id="linear-gradient1" x1="301.01" y1="225.96" x2="316.11" y2="135.94" gradientUnits="userSpaceOnUse">
      <stop offset="0" stop-color="#f96e18"/>
      <stop offset=".23" stop-color="#f77624"/>
      <stop offset=".65" stop-color="#f38c43"/>
      <stop offset=".7" stop-color="#f38f48"/>
    </linearGradient>
    <linearGradient id="linear-gradient2" x1="365.39" y1="328.79" x2="278.11" y2="456.2" gradientUnits="userSpaceOnUse">
      <stop offset=".38" stop-color="#f96e18"/>
      <stop offset=".62" stop-color="#f58336"/>
      <stop offset=".8" stop-color="#f38f48"/>
    </linearGradient>
    <linearGradient id="linear-gradient3" x1="254.88" y1="469.67" x2="317.65" y2="321.36" gradientUnits="userSpaceOnUse">
      <stop offset="0" stop-color="#1b4ba8"/>
      <stop offset=".04" stop-color="#1c45a2"/>
      <stop offset=".32" stop-color="#29207c"/>
      <stop offset=".46" stop-color="#2f126e"/>
    </linearGradient>
    <linearGradient id="linear-gradient4" x1="170.62" y1="391.37" x2="287.38" y2="319.3" gradientUnits="userSpaceOnUse">
      <stop offset="0" stop-color="#209fcc"/>
      <stop offset=".23" stop-color="#2183c6"/>
      <stop offset=".58" stop-color="#245dbe"/>
      <stop offset=".77" stop-color="#254fbc"/>
    </linearGradient>
    <linearGradient id="linear-gradient5" x1="341.27" y1="205.97" x2="413.56" y2="97.46" gradientUnits="userSpaceOnUse">
      <stop offset="0" stop-color="#480a87"/>
      <stop offset=".2" stop-color="#54098f"/>
      <stop offset=".56" stop-color="#7309a4"/>
      <stop offset=".7" stop-color="#8209ae"/>
    </linearGradient>
  </defs>
  <g class="st6">
    <g id="Layer_1">
      <rect x="21.43" y="25.36" width="521.05" height="521.05" rx="32.18" ry="32.18" fill="none"/>
      <path class="st5" d="M162.44,206.87c10.59,14.98,15.07,29.24,16.92,37.62.78-.23,1.59-.38,2.44-.43l16.27-.78c3.49-.16,6.71,1.48,8.68,4.14l.12-.02c1.52-3.66,5.13-6.26,9.32-6.29l11.22-.06c2.01,0,3.93.58,5.55,1.63l.2-.04c1.61-3.05,4.73-5.21,8.39-5.42l11.16-.67c.13,0,.27,0,.4,0,1-.49,2.09-.83,3.26-.97l15.05-1.84c-6.05-9.13-34.97-51.13-64.52-65.08-37.1-17.5-83.14-7.08-83.1,14.3.03,12.86,20.11-2.29,38.64,23.91Z"/>
      <path class="st1" d="M291.26,231.31c2.26-.27,4.52.23,6.43,1.37,4.45-3.04,9.97-4.63,16.19-4.63h.08c6.16.01,11.63,1.57,16.06,4.52l.86-.03c.5-1.21,1.22-2.33,2.15-3.27.9-.92,1.97-1.64,3.14-2.16-6.58-9.47-19.81-30.71-22.28-51.65-2.04-17.26,9.15-34.91,2.6-36.94-6.5-2.02-65.95,24.56-37.34,94.27l12.11-1.48Z"/>
      <path class="st8" d="M297.67,174.68c-2.07,19.6,2.51,43.52,15.16,58.5-14.75-6.14-24.54-40.94-16.81-58.91.39-.9,1.75-.57,1.65.41Z"/>
      <path class="st9" d="M168.71,183.45c-1.02-.45-.68-1.99.43-1.94,18.27.85,37.7,22.69,55.52,38.57,18.48,16.47,24.8,15.82,44.53,18.69-21.83,3.21-36.17-1.17-52.38-17.62-15.31-15.54-33.49-31.17-48.1-37.7Z"/>
      <g>
        <path d="M104.43,344.83c-6.81,0-12.88-2.3-17.56-6.67-7.65-7.05-9.25-18.11-9.29-32.54l-.06-20.14c-.05-17.15,2.48-26.3,9.02-32.62,4.83-4.67,11.47-7.19,19.18-7.28,7.79-.08,14.5,2.29,19.41,6.87,6.56,6.15,9.24,15.07,9.29,30.8l.02,6.73c.46,1.17.71,2.43.72,3.72l.12,39.62c.01,5.56-4.5,10.13-10.05,10.19l-4.9.06c-1.74.04-3.42-.41-4.9-1.19-3.11,1.6-6.64,2.41-10.64,2.46-.12,0-.24,0-.35,0ZM128.26,329.77h0s0,0,0,0ZM115.96,293.9v.02-.02Z"/>
        <path d="M132.3,342.39c-2.64,0-5.21-1.04-7.1-2.87-1.96-1.9-3.08-4.55-3.09-7.27l-.16-73.18c-.02-5.53,4.31-10.01,9.85-10.18l17.36-.53c9.38-.29,16.36,1.89,21.35,6.65,6.71,6.4,7.71,15.67,7.83,23.03v.21c.16,9.47-2.52,18.09-7.35,24.17l6.83,25.97c.79,3.01.18,6.17-1.68,8.66-1.86,2.5-4.71,3.98-7.82,4.08l-12.24.38c-2.14.07-4.18-.56-5.88-1.68-1.66,1.32-3.74,2.13-6.03,2.2l-11.58.36c-.1,0-.19,0-.29,0ZM145.57,282.23s0,0,0,0h0Z"/>
        <path d="M172.05,341.43c-2.82,0-5.52-1.18-7.46-3.28-2.05-2.22-3-5.22-2.6-8.22l10.23-77.06c.65-4.87,4.68-8.57,9.58-8.81l16.27-.78c5.08-.24,9.6,3.35,10.49,8.37l13.4,74.98c.52,2.87-.23,5.83-2.05,8.12-1.82,2.29-4.54,3.68-7.46,3.82l-11.56.55c-3.24.14-6.2-1.21-8.18-3.51-1.66,3.02-4.78,5.07-8.42,5.25h0l-11.74.56c-.17,0-.34.01-.5.01ZM203.26,329.96s0,.01,0,.02v-.02ZM171.66,322.44s-.02,0-.03,0h.03ZM183.38,321.88s-.01,0-.02,0h.02ZM200,320.14s-.02,0-.02,0h.02Z"/>
        <path d="M216.16,337.25c-2.72,0-5.26-1.05-7.18-2.96-1.93-1.92-2.99-4.49-2.99-7.21l.1-75.8c0-5.56,4.54-10.11,10.1-10.15l11.22-.06c2.07,0,4.03.61,5.68,1.71,1.59-3.12,4.76-5.33,8.46-5.54l11.16-.67c2.77-.16,5.53.83,7.56,2.73,2.03,1.9,3.2,4.59,3.21,7.37l.28,77.95c.02,5.39-4.18,9.87-9.57,10.18l-10.45.63c-3.06.19-6-1.04-8.03-3.21-.43.72-.94,1.39-1.53,1.98-1.9,1.91-4.43,2.97-7.12,2.99l-10.84.07h-.06ZM242.63,316.45h-.05s.05,0,.05,0ZM253.07,315.83s-.02,0-.03,0h.03ZM242.46,296.7c.69,1.97,1.43,4.08,2.22,6.33l-.02-6.46-2.2.13ZM225.07,270.45v2.43s.87-.05.87-.05l-.87-2.38ZM227.5,260.06h0,0ZM242.69,256.19h-.02s.01,0,.02,0ZM250.98,247.42s0,.01,0,.02c0,0,0,0,0-.02Z"/>
        <path d="M270.16,332.77c-2.61,0-5.16-1.02-7.04-2.82-1.97-1.88-3.11-4.52-3.14-7.24l-.07-7.57.31-48.13-2.03.07c-2.7.09-5.38-.92-7.34-2.77-1.96-1.86-3.12-4.47-3.18-7.17l-.24-11.25c-.12-5.24,3.72-9.68,8.94-10.31l34.89-4.27c2.86-.35,5.72.53,7.89,2.41,2.17,1.88,3.44,4.59,3.51,7.46l.24,11.14c.12,5.52-4.27,10.18-9.79,10.38l-2.69.1,1.09,51.63.25,7.44c.09,2.71-.87,5.3-2.73,7.28-1.85,1.99-4.37,3.13-7.08,3.22l-11.45.41c-.11,0-.23,0-.34,0ZM258.69,254.44h-.02s.01,0,.02,0ZM266.43,245.47v.02-.02Z"/>
        <path d="M312.44,327.31h-.07c-6.94-.01-13.11-2.4-17.83-6.89-7.58-7.13-9.13-18.2-9.1-32.61l.04-20.15c.03-17.4,2.53-26.22,9.21-32.56,4.86-4.61,11.49-7.05,19.19-7.05h.08c7.77.02,14.45,2.48,19.32,7.11,6.5,6.22,9.13,15.16,9.11,30.87l-.03,6.71c.46,1.16.71,2.43.71,3.76l-.07,39.61c0,2.72-1.07,5.27-2.99,7.18-1.92,1.91-4.46,2.96-7.17,2.96h-4.93c-1.74-.01-3.41-.46-4.88-1.27-3.1,1.55-6.62,2.31-10.59,2.31ZM323.85,287.64v.02-.02ZM324.07,276.47v.02-.02Z"/>
        <path d="M358.23,324.32c-7.95,0-14.78-2.63-19.78-7.6-5.44-5.42-8.31-13.28-8.3-22.73l.04-50.25-.08-7.22c-.04-2.68,1.03-5.32,2.91-7.24s4.51-3.03,7.21-3.04l11.56-.05h.04c2.41,0,4.76.87,6.59,2.43,1.84-1.6,4.16-2.47,6.62-2.48l11.56-.05h.04c2.69,0,5.32,1.1,7.22,3.01,1.91,1.92,2.98,4.58,2.94,7.29l-.1,7.22-.04,50.25c-.01,18.44-11.11,30.41-28.28,30.48h-.15ZM354.75,294.98h0ZM349.11,236.28v.02-.02Z"/>
        <path d="M395.94,321.91h-.05l-11.54-.04c-2.72-.01-5.36-1.13-7.25-3.07s-2.94-4.6-2.88-7.31l.15-7.21.52-61.84-.03-7.22c-.01-2.68,1.07-5.32,2.97-7.22,1.89-1.9,4.51-2.98,7.19-2.98h.04l11.56.04c2.71.01,5.35,1.13,7.24,3.07s2.94,4.6,2.89,7.31l-.15,7.21-.52,61.84.03,7.22c.01,2.68-1.07,5.32-2.98,7.23s-4.51,2.98-7.19,2.98ZM387.1,311.78v.02-.02ZM395.94,302.91h.03-.03ZM385,244.02h0,0ZM393.87,235.13v.02-.02Z"/>
        <path d="M404.18,321.83c-2.69,0-5.31-1.09-7.21-3-1.91-1.92-2.99-4.57-2.96-7.27l.07-7.21-.16-61.85-.11-7.22c-.04-2.71,1.02-5.35,2.91-7.28,1.88-1.92,4.51-3.03,7.2-3.04l18.53-.1c.06,0,.13,0,.19,0,7.32,0,13.75,2.39,18.61,6.91,7.69,7.02,9.29,16.68,9.32,29.03l.07,24.72c.03,12.34-1.51,22.01-9.14,29.1-4.87,4.61-11.34,7.06-18.73,7.1l-18.53.1h-.05ZM425.63,247.23h0s0,0,0,0Z"/>
        <path d="M479.62,324.31c-.06,0-.13,0-.19,0l-31.45-.55c-2.7-.05-5.31-1.19-7.17-3.14-1.86-1.94-2.88-4.6-2.81-7.29l.2-7.23.91-61.84.02-7.22c0-2.71,1.12-5.34,3.05-7.24,1.93-1.89,4.58-2.96,7.29-2.9l31.06.54c5.58.1,10.06,4.72,9.99,10.3l-.16,10.88c-.04,2.73-1.14,5.27-3.1,7.16-1.96,1.89-4.53,2.89-7.25,2.85l-2.33-.04c4.71.93,8.25,5.14,8.19,10.11l-.16,11.1c-.04,2.73-1.14,5.27-3.1,7.16-1.95,1.89-4.53,2.89-7.24,2.86l-5.21-.09-.05,3.21,9.86.17c5.57.09,10.06,4.71,9.99,10.3l-.16,10.88c-.04,2.73-1.14,5.27-3.1,7.16-1.91,1.84-4.41,2.85-7.06,2.85ZM479.61,312.11s.02,0,.02,0h-.02ZM479.75,305.31h.02-.02ZM469.96,301.74v.02-.02ZM461.27,292.79h.02s-.02,0-.02,0ZM470.27,280.86v.02-.02ZM470.47,267.11v.02-.02ZM470.73,249.61v.02-.02ZM480.32,239.65h.02s-.01,0-.02,0Z"/>
      </g>
      <path class="st12" d="M395.94,321.91h-.05l-7.34-.03c-1.66,12.73-8.04,32.85-16.49,45.85-7.72,11.87-22.75,19.64-38.48,40.33,21.55,5.69,91.97-33.45,64.64-86.44-.74.17-1.51.27-2.28.27Z"/>
      <path class="st0" d="M384.35,321.87c-2.72-.01-5.36-1.13-7.25-3.07-.18-.19-.35-.39-.52-.59-4.72,3.9-10.91,6.09-18.19,6.12h-.15c-1.45,0-2.87-.09-4.24-.26-5.07,4.74-16.45,10.7-26.63,17.87-13.58,9.57-24.69,23.15-23.15,64.2,1.54,41.05-14.51,51.55-25,61.11-1.8,1.64-4.19,3.16-6.91,4.49,9.53-.8,29.99-6.38,45.32-37.56,20.67-42.02,44.09-50.54,54.42-66.43,8.46-13,14.83-33.12,16.49-45.85h-4.2Z"/>
      <path class="st2" d="M342.29,319.84c-.51,1.29-1.27,2.47-2.28,3.47-1.92,1.91-4.46,2.96-7.17,2.96h-4.93c-1.74-.01-3.41-.46-4.88-1.27-2.73,1.36-5.78,2.11-9.17,2.28-27.68,12.27-60.92,46.6-64.93,70.67-4.63,27.78-2.23,38.25-5.46,50.79-3.81,14.76-8.71,17.89-7.47,22.83,2.65,10.58,32.72,5.25,43.21-4.32s26.54-20.06,25-61.11c-1.54-41.05,9.57-54.63,23.15-64.2,10.18-7.17,21.57-13.13,26.64-17.87-4.38-.55-8.33-1.98-11.71-4.22Z"/>
      <path class="st4" d="M270.51,332.76c-.11,0-.23,0-.34,0-2.61,0-5.16-1.02-7.04-2.82-.19-.18-.36-.37-.53-.56-1.61,3.05-4.73,5.2-8.4,5.41l-10.45.63c-3.06.19-6-1.04-8.03-3.21-.43.72-.94,1.39-1.53,1.98-1.9,1.91-4.43,2.97-7.12,2.99l-10.09.06c-1.37.77-2.9,1.24-4.51,1.32l-2.24.11c-.25.14-.5.27-.74.41-24.42,4.87-72.71,32.57-68.8,67.73.47,4.19,7.51-3.39,38.3-1.21,16.3,1.16,45.63-3.46,73.38-39.23,14.81-19.09,22.56-28.9,26.57-33.91l-8.42.3Z"/>
      <path class="st3" d="M351.79,226.18h.04c2.41,0,4.76.87,6.59,2.43,1.84-1.6,4.16-2.47,6.62-2.48l9.3-.04c.31-11.04,2.87-44.01,22.1-60.21,14.89-12.54,52.89-49.45,41.53-64.85-7.41-10.05-20.26-1.46-45.3,7.61s-54,19.85-66.3,54.05c-8.24,22.89,8.44,53.46,14.59,63.54l10.83-.05Z"/>
      <path class="st7" d="M363.33,229.73c-8.1-24.48-11.63-68.74,35.83-96.85.85-.5,1.67.68.91,1.31-33.09,27.08-41.28,48.19-36.74,95.55Z"/>
      <g>
        <path class="st12" d="M371.12,229.78h3.19l-3.19-.02v.02Z"/>
        <path class="st12" d="M439.1,113.71c-5.26,17.67-31.02,42.36-42.67,52.17-23.32,19.63-22.13,63.91-22.13,63.91h13.81s-1.04-27.91,15.74-40.95c18.56-14.42,35.01-40.46,36.2-57.92.56-8.21,0-13.62-.95-17.21Z"/>
        <path class="st8" d="M325.7,388.87c13-30.21,29.51-47.74,63.13-69.52-28.48,14-55.64,33.16-64.57,69.04-.23.91,1.07,1.34,1.44.48Z"/>
      </g>
      <g>
        <path class="st10" d="M107.65,293.27l16.79-.2c.67,0,1.22.53,1.22,1.21l.11,38.52c0,.66-.53,1.2-1.19,1.21l-4.01.05c-.48,0-.92-.28-1.12-.71l-2.39-5.34h-.2c-2.79,4.72-6.28,7.26-12.18,7.33-4.2.05-8.21-1.21-11.31-4.11-4.31-3.98-6.23-10.82-6.28-25.62l-.06-20.14c-.05-15.79,2.14-21.91,6.13-25.77,3.19-3.09,7.69-4.55,12.69-4.61,5.3-.06,9.71,1.41,12.82,4.31,4.01,3.76,6.23,9.94,6.27,23.88v.22s-12.9.15-12.9.15v-.22c-.03-9.25-.05-15.46-6.15-15.39-6,.07-5.98,6.28-5.96,14.22l.08,26.24c.02,8.17.04,14.15,6.04,14.08,7.3-.09,7.28-8.9,7.25-16.74v-.11s-5.58.07-5.58.07c-.67,0-1.22-.53-1.22-1.21l-.03-10.1c0-.66.53-1.2,1.19-1.21Z"/>
        <path class="st10" d="M144.77,304.92l-.24,26.44c0,.65-.52,1.18-1.17,1.2l-10.5.32c-.68.02-1.24-.52-1.25-1.21l-.16-72.09c0-.65.52-1.19,1.17-1.21l16.83-.52c16-.49,19.18,7.72,19.39,20.35v.22c.14,7.86-2.39,16.28-7.79,20.65-.38.31-.56.79-.43,1.26l7.84,29.82c.2.75-.36,1.49-1.13,1.52l-11.1.34c-.57.02-1.08-.37-1.21-.92l-6.48-26.55c-.14-.58-.68-.96-1.27-.92l-1.38.11c-.63.05-1.11.57-1.12,1.19ZM145.17,290.52c.01.67.57,1.21,1.25,1.19l2.17-.07c7.2-.22,8.52-5.16,8.42-11.15v-.11c-.1-5.98-1.68-10.73-8.58-10.51l-2.41.07c-.66.02-1.18.57-1.17,1.23l.32,19.35Z"/>
        <path class="st10" d="M183.37,331.39l-10.62.51c-.75.04-1.36-.62-1.26-1.37l10.08-75.95c.08-.58.56-1.02,1.14-1.05l15.33-.73c.61-.03,1.14.4,1.25.99l13.21,73.9c.13.72-.4,1.39-1.13,1.42l-10.44.5c-.61.03-1.15-.41-1.25-1.01l-2.07-12.72c-.1-.61-.64-1.04-1.25-1.01l-9.14.44c-.59.03-1.08.48-1.14,1.07l-1.56,13.94c-.07.59-.55,1.04-1.14,1.07ZM189,302.69l6.11-.29c.73-.03,1.26-.7,1.13-1.42l-3.41-18.95c-.62-3.67-1.28-8.65-1.57-11.36l-.6.03c-.01,2.72-.45,7.76-.83,11.48l-2.09,19.18c-.08.74.52,1.37,1.26,1.34Z"/>
        <path class="st10" d="M227.07,250.56c.51,0,.97.32,1.14.79l9.51,26.06c1.65,4.13,2.56,7.04,3.36,9.85l.4-.02c-.28-2.65-.05-33.1,0-39.38,0-.64.5-1.15,1.14-1.19l10.09-.6c.69-.04,1.28.51,1.28,1.2l.28,76.85c0,.64-.5,1.17-1.14,1.21l-9.54.57c-.54.03-1.03-.29-1.21-.8-2.07-5.89-14.17-40.29-14.99-42.85l-.4.02c.28,2.65.59,37.25.66,44.19,0,.67-.53,1.21-1.2,1.21l-9.73.06c-.67,0-1.22-.54-1.22-1.21l.1-74.71c0-.66.54-1.2,1.2-1.21l10.28-.06Z"/>
        <path class="st10" d="M281.57,254.9l.7,66.76c0,.66-.51,1.2-1.17,1.22l-10.38.37c-.68.02-1.24-.52-1.25-1.2l-.69-65.35c0-.72-.65-1.28-1.36-1.19l-7.86,1.02c-.66.09-1.27-.39-1.35-1.05l-1.14-9.2c-.08-.66.39-1.27,1.05-1.35l32.99-3.99c.66-.08,1.27.39,1.35,1.06l1.11,9.22c.08.67-.4,1.27-1.06,1.35l-9.85,1.12c-.62.07-1.08.59-1.07,1.21Z"/>
        <path class="st10" d="M315.58,275.78l16.78.04c.67,0,1.21.54,1.21,1.21l-.07,38.53c0,.67-.54,1.21-1.21,1.21h-4c-.48,0-.91-.29-1.1-.73l-2.37-5.38h-.2c-2.81,4.68-6.31,7.17-12.21,7.16-4.2,0-8.2-1.32-11.29-4.27-4.29-4.04-6.18-10.9-6.15-25.71l.04-20.15c.03-15.79,2.24-21.88,6.25-25.69,3.21-3.04,7.71-4.45,12.71-4.44,5.3.01,9.7,1.55,12.79,4.49,3.99,3.82,6.18,10.03,6.16,23.97v.22s-12.9-.03-12.9-.03v-.22c.02-9.26.03-15.46-6.07-15.48-6-.01-6.01,6.19-6.03,14.14l-.05,26.25c-.02,8.17-.03,14.16,5.97,14.17,7.3.02,7.32-8.81,7.33-16.65v-.11s-5.59-.01-5.59-.01c-.67,0-1.21-.54-1.21-1.21l.02-10.11c0-.67.54-1.21,1.21-1.21Z"/>
        <path class="st10" d="M376.08,235.58c.68,0,1.22.55,1.21,1.23l-.09,6.72-.04,50.31c-.01,13.39-7.22,20.94-18.82,20.99-11.6.05-18.7-7.44-18.69-20.83l.04-50.31-.08-6.73c0-.67.53-1.22,1.2-1.22l10.45-.04c.68,0,1.22.55,1.21,1.23l-.09,6.72-.04,48.78c0,6.1,1.49,9.47,5.99,9.45,4.6-.02,6.1-3.4,6.11-9.5l.04-48.78-.08-6.73c0-.67.53-1.22,1.2-1.22l10.45-.04Z"/>
        <path class="st10" d="M396.04,234.55c.68,0,1.22.56,1.2,1.23l-.14,6.72-.53,61.96.03,6.73c0,.67-.54,1.22-1.21,1.21l-10.45-.04c-.68,0-1.22-.56-1.2-1.23l.14-6.72.52-61.96-.03-6.73c0-.67.54-1.22,1.21-1.21l10.45.04Z"/>
        <path class="st10" d="M434.81,238.76c4.41,4,6.23,9.77,6.26,22.07l.07,24.72c.03,12.31-1.75,18.09-6.14,22.14-2.99,2.85-7.09,4.5-12.29,4.53l-17.97.1c-.68,0-1.22-.55-1.22-1.22l.07-6.72-.16-61.96-.1-6.73c-.01-.67.53-1.22,1.2-1.23l17.98-.1c5.2-.03,9.3,1.58,12.31,4.4ZM416.13,247.8l.14,51.05c0,.67.55,1.21,1.22,1.21l3.19-.02c5.9-.03,7.59-4.29,7.57-10.61l-.09-32.34c-.02-5.88-1.63-10.55-7.63-10.52l-3.19.02c-.67,0-1.2.55-1.2,1.21Z"/>
        <path class="st10" d="M460.76,281.28l-.29,19.79c0,.67.52,1.22,1.19,1.23l17.59.31c.67.01,1.2.56,1.19,1.23l-.14,9.78c0,.67-.56,1.2-1.23,1.19l-30.36-.53c-.67-.01-1.21-.57-1.19-1.24l.18-6.73.91-61.96v-6.72c.02-.67.57-1.22,1.25-1.21l29.96.52c.67.01,1.2.56,1.19,1.23l-.14,9.78c0,.67-.56,1.2-1.23,1.19l-17.17-.3c-.67-.01-1.22.52-1.23,1.19l-.24,16.42c0,.67.52,1.22,1.19,1.23l12.99.23c.67.01,1.2.56,1.19,1.23l-.15,9.99c0,.67-.56,1.2-1.23,1.19l-12.97-.23c-.67-.01-1.22.52-1.23,1.19Z"/>
      </g>
      <path class="st11" d="M283.57,392.3c-3.75,15.97-19.76,56-47.36,78.21-.82.66-.08,1.96.91,1.59,40.51-15.46,49.18-45.49,48.28-79.6-.03-1.08-1.58-1.25-1.83-.19Z"/>
      <path class="st9" d="M167.65,386.57c28.72-16.31,52.15-18.88,86.61-54.64-6.04,15.1-48.02,55.56-86.61,54.64Z"/>
    </g>
  </g>
</svg>