<?xml version="1.0" encoding="UTF-8"?>
<svg id="Layer_1" xmlns="http://www.w3.org/2000/svg" version="1.1" viewBox="0 0 566.93 566.93">
  <!-- Generator: Adobe Illustrator 29.5.1, SVG Export Plug-In . SVG Version: 2.1.0 Build 141)  -->
  <defs>
    <style>
      .st0 {
        fill: #521479;
      }

      .st1 {
        fill: #b66622;
      }

      .st2 {
        fill: #fd8a2f;
      }

      .st3 {
        fill: #421b61;
      }

      .st4 {
        fill: #256598;
      }

      .st5 {
        fill: #2787d3;
      }
    </style>
  </defs>
  <rect x="9.96" y="9.96" width="547.01" height="547.01" rx="17.64" ry="17.64" fill="none"/>
  <path class="st2" d="M288.37,396.28c6.26,2.41,5.08-20.56,21.22-40.46s39.79-42.33,57.7-60.18c17.91-17.85,33.38-47.92,36.03-95.23s6.69-57.71.66-62.34c-10.02-7.7-73.79,22.91-105.47,56.56-34.24,36.37-32.15,92.52-20.51,132.93,10.9,37.83,4.1,66.31,10.36,68.73Z"/>
  <path class="st0" d="M365.71,370.26c26.85,1.64,49.34-12.93,62.15-26.12,17.16-17.66,31.3-55.77,27.25-60.49-3.78-4.39-49.08,0-75.8,20.36-25.29,19.26-49.65,55.01-45.45,64.14,2.42,5.26,14.49,1.05,31.85,2.1Z"/>
  <path class="st5" d="M269.57,422.43c4.97-.98,1.61-24.54,2.1-48.52.74-36.51-8.41-66.73-14.67-88.97-19.77-70.31-122.83-95.59-143-82.82-7.88,4.99,2.24,20,9.13,53.52,9.18,44.65,27.81,74.9,91.43,112.44,47.73,28.16,44.36,56.44,55.01,54.34Z"/>
  <path class="st1" d="M296.94,327.77c11.58-28.48,24.8-63.73,37.02-87.77.53-1.05-.89-1.99-1.65-1.09-17.54,20.73-32.49,63.82-37.27,88.3-.23,1.18,1.44,1.67,1.89.56Z"/>
  <path class="st3" d="M356.65,352.42c11.45-8.8,25.5-19.51,40.31-27.51.84-.45.29-1.73-.61-1.42-13.65,4.72-28.58,14.68-40.74,27.79-.64.69.29,1.72,1.04,1.14Z"/>
  <path class="st4" d="M247.21,370.11c-18.78-41.04-41.06-70.33-57.52-91.2-.88-1.11.5-2.59,1.67-1.8,33.69,22.52,51.99,57.33,58.21,92.28.25,1.43-1.75,2.05-2.36.73Z"/>
</svg>